<?xml version="1.0" standalone="no"?>
<!DOCTYPE svg PUBLIC "-//W3C//DTD SVG 20010904//EN"
 "http://www.w3.org/TR/2001/REC-SVG-20010904/DTD/svg10.dtd">
<svg version="1.0" xmlns="http://www.w3.org/2000/svg"
 width="2234.000000pt" height="607.000000pt" viewBox="0 0 2234.000000 607.000000"
 preserveAspectRatio="xMidYMid meet">

<g transform="translate(0.000000,607.000000) scale(0.100000,-0.100000)"
fill="#000000" stroke="none">
<path d="M4176 5992 c-110 -219 -183 -534 -193 -837 -6 -171 -2 -226 36 -515
10 -80 17 -147 15 -149 -8 -8 -56 60 -98 139 -136 258 -213 653 -187 957 11
123 45 323 71 413 5 19 10 38 10 42 0 8 -101 -15 -221 -52 -196 -61 -384 -157
-550 -282 l-78 -59 25 -72 c39 -112 156 -341 232 -457 137 -207 304 -384 507
-539 141 -109 215 -170 215 -181 0 -26 -252 60 -425 145 -333 163 -558 371
-767 712 l-50 83 -18 -23 c-36 -46 -105 -166 -148 -257 -74 -158 -131 -359
-157 -551 l-6 -46 83 -38 c172 -78 417 -145 648 -176 149 -20 407 -16 614 10
206 26 229 21 145 -32 -81 -51 -124 -72 -239 -112 -270 -94 -577 -134 -820
-106 -89 11 -310 49 -388 68 -26 6 -27 14 9 -132 29 -115 62 -205 123 -330 50
-102 161 -279 219 -350 l25 -30 108 44 c366 146 665 368 917 681 117 144 186
220 199 220 28 0 -51 -241 -127 -389 -72 -140 -153 -263 -258 -386 -120 -142
-238 -239 -440 -361 l-118 -72 87 -53 c192 -115 421 -203 649 -249 61 -11 117
-23 126 -26 21 -6 102 167 153 323 100 311 126 605 86 967 -11 99 -20 197 -20
219 0 39 0 40 20 22 56 -50 170 -327 209 -506 67 -309 67 -522 0 -842 -17 -82
-28 -151 -26 -154 9 -8 216 47 317 84 179 67 358 170 519 299 8 7 -54 165
-109 279 -102 208 -291 469 -448 617 -37 34 -126 111 -197 169 -72 59 -143
121 -159 138 l-30 31 32 0 c95 0 384 -124 546 -234 227 -154 369 -296 530
-529 l108 -158 33 48 c128 191 231 463 279 738 10 59 10 83 2 91 -17 17 -219
99 -317 128 -328 100 -703 122 -1049 63 -80 -14 -165 -28 -190 -31 -44 -7 -44
-7 -25 11 11 10 47 35 80 55 268 161 595 248 923 248 145 -1 221 -9 415 -46
76 -15 140 -24 143 -22 2 3 -9 57 -25 120 -54 215 -147 414 -274 585 -99 135
-91 128 -139 112 -63 -20 -269 -122 -367 -181 -258 -155 -452 -333 -672 -618
-37 -47 -87 -107 -113 -135 l-47 -50 5 50 c24 239 292 701 527 907 70 61 258
198 344 250 30 18 55 36 55 41 0 10 -113 82 -210 135 -140 75 -428 166 -592
186 l-57 7 -35 -69z"/>
<path d="M1304 3370 c-206 -23 -456 -118 -623 -237 -258 -184 -450 -492 -506
-811 -16 -96 -20 -262 -6 -262 18 0 183 62 338 126 207 87 1273 522 1433 586
216 85 400 170 400 183 0 18 -156 165 -225 212 -227 154 -544 233 -811 203z"/>
<path d="M6650 3374 c-14 -2 -56 -9 -95 -15 -148 -24 -328 -95 -465 -184 -95
-62 -260 -224 -239 -235 8 -4 347 -144 754 -310 407 -166 842 -344 966 -395
201 -83 440 -175 454 -175 11 0 4 193 -10 276 -88 508 -489 907 -1025 1018
-75 15 -293 28 -340 20z"/>
<path d="M18501 2850 c-53 -11 -85 -31 -108 -67 -17 -25 -18 -78 -18 -793 0
-694 2 -771 17 -833 24 -93 49 -138 104 -186 69 -60 146 -82 314 -88 155 -5
175 1 204 62 26 53 28 203 2 256 -22 46 -46 59 -130 67 -60 6 -72 11 -90 35
-21 28 -21 36 -26 745 -5 670 -6 719 -23 744 -10 14 -33 33 -50 41 -42 20
-140 28 -196 17z"/>
<path d="M14625 2835 c-22 -8 -41 -15 -41 -15 -1 0 -10 -12 -20 -27 -17 -26
-19 -57 -24 -356 l-5 -327 -49 35 c-100 71 -248 101 -378 76 -236 -46 -451
-265 -509 -519 -15 -64 -14 -214 1 -287 28 -135 105 -271 210 -368 151 -140
337 -194 518 -152 73 17 111 36 166 79 22 17 41 26 43 21 2 -6 12 -24 23 -42
32 -53 63 -66 161 -71 74 -4 94 -1 132 17 82 40 77 -23 77 967 0 970 3 926
-64 961 -43 23 -188 28 -241 8z m-249 -1033 c49 -25 110 -91 131 -141 9 -20
16 -65 16 -101 1 -155 -117 -281 -263 -279 -187 2 -310 177 -256 363 21 71 89
145 157 169 59 22 161 17 215 -11z"/>
<path d="M19294 2840 c-43 -14 -82 -55 -91 -99 -5 -20 -7 -73 -7 -118 3 -145
50 -188 209 -187 93 1 133 13 168 51 24 28 40 126 32 203 -13 121 -51 153
-190 157 -49 1 -104 -2 -121 -7z"/>
<path d="M2450 2807 c-36 -13 -474 -195 -975 -405 -501 -209 -957 -399 -1015
-422 -250 -99 -338 -148 -366 -201 -22 -44 -15 -156 16 -226 26 -62 83 -117
137 -133 62 -19 144 7 510 164 186 79 671 284 1078 456 407 172 770 327 806
345 76 39 125 90 135 140 15 81 -40 235 -99 277 -47 34 -142 36 -227 5z"/>
<path d="M5534 2811 c-109 -67 -156 -289 -76 -363 40 -37 139 -85 397 -191
320 -132 1658 -690 1780 -742 122 -53 225 -85 271 -85 40 0 100 28 131 62 66
71 99 231 60 292 -23 34 -116 95 -199 129 -430 177 -1882 782 -1973 822 -217
95 -325 116 -391 76z"/>
<path d="M9585 2778 c-532 -99 -864 -533 -806 -1053 16 -143 35 -206 98 -333
48 -98 68 -127 146 -208 137 -144 279 -231 477 -292 77 -24 100 -26 255 -26
166 -1 172 0 264 32 98 34 202 89 288 153 89 66 92 135 13 256 -81 123 -145
139 -268 64 -133 -80 -182 -95 -307 -96 -131 0 -218 23 -310 83 -158 103 -238
240 -251 430 -11 168 42 319 150 427 108 107 251 165 411 165 121 0 192 -24
320 -106 74 -47 103 -51 161 -24 32 16 60 41 90 82 77 105 82 185 15 248 -82
78 -262 167 -400 196 -74 15 -269 17 -346 2z"/>
<path d="M16797 2769 c-56 -13 -84 -36 -102 -82 -14 -37 -15 -135 -13 -877 3
-779 4 -838 21 -863 41 -63 28 -62 515 -65 490 -3 502 -2 630 61 98 47 211
161 257 258 41 87 65 188 65 280 0 127 -57 285 -136 378 l-34 40 29 43 c52 76
73 144 78 248 7 116 -7 188 -53 280 -66 130 -187 237 -323 282 -63 21 -84 22
-481 24 -228 2 -432 -1 -453 -7z m804 -410 c53 -18 87 -56 98 -110 15 -69 0
-137 -37 -170 -27 -24 -37 -26 -148 -31 -187 -8 -224 -37 -224 -175 0 -81 21
-131 65 -152 19 -10 80 -17 166 -21 116 -5 140 -9 171 -28 50 -31 70 -79 70
-169 0 -101 -28 -157 -97 -193 -49 -25 -53 -25 -312 -28 l-263 -3 0 545 0 546
239 0 c151 0 250 -4 272 -11z"/>
<path d="M4018 2419 c-1 -28 -1 -584 0 -1235 l4 -1184 144 0 144 0 0 1235 0
1235 -144 0 -144 0 -4 -51z"/>
<path d="M15285 2242 c-65 -23 -142 -76 -166 -115 -10 -18 -19 -50 -19 -73 0
-50 15 -75 339 -568 l242 -368 -125 -282 c-149 -335 -158 -368 -121 -427 32
-49 158 -109 232 -111 51 -1 91 30 125 97 22 42 187 409 530 1180 217 488 225
513 182 572 -32 43 -143 96 -213 101 -97 7 -106 -6 -270 -373 -77 -170 -143
-310 -148 -312 -4 -1 -96 134 -203 299 -213 330 -239 364 -287 384 -40 17 -37
17 -98 -4z"/>
<path d="M20235 2244 c-168 -26 -304 -114 -358 -232 -19 -40 -22 -65 -22 -167
0 -116 1 -123 33 -187 59 -120 158 -181 407 -248 83 -23 166 -52 186 -65 64
-42 58 -104 -12 -141 -24 -12 -52 -15 -113 -12 -71 3 -92 8 -171 47 -168 81
-243 98 -284 64 -11 -10 -36 -45 -56 -77 -28 -48 -35 -70 -35 -110 0 -77 32
-117 137 -170 101 -51 217 -78 358 -83 285 -11 477 72 561 243 28 56 29 66 29
189 0 112 -3 137 -21 176 -53 114 -156 180 -351 224 -65 15 -149 36 -187 47
-111 32 -153 91 -106 151 50 64 156 62 314 -6 137 -59 172 -61 220 -11 73 75
97 175 55 228 -24 31 -113 78 -214 114 -59 20 -92 25 -205 27 -74 2 -148 1
-165 -1z"/>
<path d="M21435 2233 c-155 -33 -273 -119 -314 -228 -55 -147 -31 -316 61
-420 68 -79 160 -123 360 -175 130 -34 169 -50 206 -83 48 -44 12 -118 -63
-133 -87 -16 -164 0 -292 60 -82 38 -140 59 -175 63 -52 5 -55 4 -87 -33 -41
-46 -81 -129 -81 -167 0 -78 67 -144 200 -196 108 -42 213 -61 340 -61 209 0
365 52 458 155 75 82 96 143 97 285 0 104 -3 120 -26 171 -59 124 -152 180
-389 234 -192 44 -212 50 -244 80 -36 33 -36 87 0 120 57 53 158 46 308 -19
58 -26 120 -46 140 -46 94 0 189 175 138 256 -25 39 -158 106 -266 134 -96 24
-265 26 -371 3z"/>
<path d="M11006 2214 c-159 -38 -334 -184 -414 -344 -56 -112 -75 -193 -75
-310 0 -118 19 -197 77 -315 54 -109 130 -196 230 -263 202 -135 453 -134 613
3 23 19 43 35 45 35 3 0 3 -13 0 -28 -6 -41 42 -86 109 -102 63 -15 164 -8
207 14 70 36 67 5 67 652 0 573 0 583 -21 611 -33 45 -79 63 -164 63 -41 0
-92 -5 -112 -10 -46 -13 -88 -61 -88 -102 l0 -30 -42 37 c-49 41 -126 80 -189
94 -61 14 -173 12 -243 -5z m301 -410 c92 -44 145 -133 145 -245 0 -190 -160
-316 -335 -265 -209 61 -270 319 -111 466 89 82 190 97 301 44z"/>
<path d="M12181 2217 c-45 -16 -72 -54 -82 -114 -11 -69 -11 -1017 1 -1087 12
-75 43 -110 113 -127 61 -14 174 -6 216 16 63 32 65 44 71 420 5 326 6 342 27
381 46 85 120 126 230 126 112 0 184 -44 225 -137 9 -22 14 -125 18 -370 6
-377 6 -380 74 -421 47 -28 217 -27 266 2 65 38 65 38 65 449 -1 349 -2 374
-23 448 -35 127 -78 203 -157 283 -39 39 -91 80 -118 92 -119 55 -265 68 -379
32 -74 -23 -179 -87 -204 -124 -22 -34 -34 -33 -34 4 0 45 -24 93 -56 115 -36
24 -200 32 -253 12z"/>
<path d="M19298 2218 c-49 -13 -85 -57 -93 -111 -3 -23 -5 -287 -3 -587 3
-600 1 -575 64 -617 39 -25 191 -31 249 -9 85 33 80 -6 80 658 0 579 0 587
-21 615 -11 15 -34 35 -50 43 -35 18 -174 23 -226 8z"/>
<path d="M2365 2072 c-165 -68 -475 -198 -690 -289 -214 -91 -538 -227 -720
-303 -181 -76 -361 -153 -399 -171 l-70 -33 75 -69 c243 -228 522 -340 849
-339 198 0 405 49 581 138 170 86 369 261 473 417 136 204 214 474 204 702
l-3 71 -300 -124z"/>
<path d="M5527 2183 c-20 -19 4 -260 39 -393 119 -453 496 -801 977 -901 141
-30 353 -30 487 -1 158 34 304 97 455 197 90 60 205 160 205 179 0 25 -39 48
-172 103 -294 121 -1610 675 -1703 716 -80 36 -266 107 -279 107 -2 0 -6 -3
-9 -7z"/>
<path d="M1970 798 c-63 -27 -116 -51 -118 -53 -7 -6 70 -202 187 -480 l109
-260 156 -3 155 -3 -15 38 c-211 508 -332 786 -352 804 -4 4 -59 -15 -122 -43z"/>
<path d="M6057 763 c-34 -72 -317 -749 -317 -759 0 -2 64 -3 142 -2 l141 3 80
190 c134 322 228 557 224 562 -9 8 -176 73 -203 79 -28 5 -31 2 -67 -73z"/>
</g>
</svg>
